<mxfile host="app.diagrams.net" modified="2022-10-16T08:08:59.179Z" agent="5.0 (Macintosh; Intel Mac OS X 10_15_7) AppleWebKit/537.36 (KHTML, like Gecko) Chrome/106.0.0.0 Safari/537.36" etag="_yB4NXlsaDod5YEPw0tI" version="20.4.1" type="github">
  <diagram id="KyUI-vzFLuNqL8UmXENH" name="페이지-1">
    <mxGraphModel dx="946" dy="613" grid="1" gridSize="10" guides="1" tooltips="1" connect="1" arrows="1" fold="1" page="1" pageScale="1" pageWidth="827" pageHeight="1169" math="0" shadow="0">
      <root>
        <mxCell id="0" />
        <mxCell id="1" parent="0" />
        <mxCell id="A0C1z3csXQuL9Pser97o-1" value="tb_member" style="shape=table;startSize=30;container=1;collapsible=1;childLayout=tableLayout;fixedRows=1;rowLines=0;fontStyle=1;align=center;resizeLast=1;" vertex="1" parent="1">
          <mxGeometry x="40" y="160" width="370" height="250" as="geometry" />
        </mxCell>
        <mxCell id="A0C1z3csXQuL9Pser97o-2" value="" style="shape=tableRow;horizontal=0;startSize=0;swimlaneHead=0;swimlaneBody=0;fillColor=none;collapsible=0;dropTarget=0;points=[[0,0.5],[1,0.5]];portConstraint=eastwest;top=0;left=0;right=0;bottom=1;" vertex="1" parent="A0C1z3csXQuL9Pser97o-1">
          <mxGeometry y="30" width="370" height="30" as="geometry" />
        </mxCell>
        <mxCell id="A0C1z3csXQuL9Pser97o-4" value="member_sq (bigint)" style="shape=partialRectangle;connectable=0;fillColor=none;top=0;left=0;bottom=0;right=0;align=left;spacingLeft=6;fontStyle=5;overflow=hidden;" vertex="1" parent="A0C1z3csXQuL9Pser97o-2">
          <mxGeometry width="150" height="30" as="geometry">
            <mxRectangle width="150" height="30" as="alternateBounds" />
          </mxGeometry>
        </mxCell>
        <mxCell id="A0C1z3csXQuL9Pser97o-94" value="PK, AI" style="shape=partialRectangle;connectable=0;fillColor=none;top=0;left=0;bottom=0;right=0;align=left;spacingLeft=6;fontStyle=5;overflow=hidden;" vertex="1" parent="A0C1z3csXQuL9Pser97o-2">
          <mxGeometry x="150" width="60" height="30" as="geometry">
            <mxRectangle width="60" height="30" as="alternateBounds" />
          </mxGeometry>
        </mxCell>
        <mxCell id="A0C1z3csXQuL9Pser97o-134" value="" style="shape=partialRectangle;connectable=0;fillColor=none;top=0;left=0;bottom=0;right=0;align=left;spacingLeft=6;fontStyle=5;overflow=hidden;" vertex="1" parent="A0C1z3csXQuL9Pser97o-2">
          <mxGeometry x="210" width="160" height="30" as="geometry">
            <mxRectangle width="160" height="30" as="alternateBounds" />
          </mxGeometry>
        </mxCell>
        <mxCell id="A0C1z3csXQuL9Pser97o-5" value="" style="shape=tableRow;horizontal=0;startSize=0;swimlaneHead=0;swimlaneBody=0;fillColor=none;collapsible=0;dropTarget=0;points=[[0,0.5],[1,0.5]];portConstraint=eastwest;top=0;left=0;right=0;bottom=0;" vertex="1" parent="A0C1z3csXQuL9Pser97o-1">
          <mxGeometry y="60" width="370" height="30" as="geometry" />
        </mxCell>
        <mxCell id="A0C1z3csXQuL9Pser97o-7" value="id (varchar(255))" style="shape=partialRectangle;connectable=0;fillColor=none;top=0;left=0;bottom=0;right=0;align=left;spacingLeft=6;overflow=hidden;" vertex="1" parent="A0C1z3csXQuL9Pser97o-5">
          <mxGeometry width="150" height="30" as="geometry">
            <mxRectangle width="150" height="30" as="alternateBounds" />
          </mxGeometry>
        </mxCell>
        <mxCell id="A0C1z3csXQuL9Pser97o-95" value="NN" style="shape=partialRectangle;connectable=0;fillColor=none;top=0;left=0;bottom=0;right=0;align=left;spacingLeft=6;overflow=hidden;" vertex="1" parent="A0C1z3csXQuL9Pser97o-5">
          <mxGeometry x="150" width="60" height="30" as="geometry">
            <mxRectangle width="60" height="30" as="alternateBounds" />
          </mxGeometry>
        </mxCell>
        <mxCell id="A0C1z3csXQuL9Pser97o-135" value="계정 id" style="shape=partialRectangle;connectable=0;fillColor=none;top=0;left=0;bottom=0;right=0;align=left;spacingLeft=6;overflow=hidden;" vertex="1" parent="A0C1z3csXQuL9Pser97o-5">
          <mxGeometry x="210" width="160" height="30" as="geometry">
            <mxRectangle width="160" height="30" as="alternateBounds" />
          </mxGeometry>
        </mxCell>
        <mxCell id="A0C1z3csXQuL9Pser97o-8" value="" style="shape=tableRow;horizontal=0;startSize=0;swimlaneHead=0;swimlaneBody=0;fillColor=none;collapsible=0;dropTarget=0;points=[[0,0.5],[1,0.5]];portConstraint=eastwest;top=0;left=0;right=0;bottom=0;" vertex="1" parent="A0C1z3csXQuL9Pser97o-1">
          <mxGeometry y="90" width="370" height="30" as="geometry" />
        </mxCell>
        <mxCell id="A0C1z3csXQuL9Pser97o-10" value="passwrod (varchar(255))" style="shape=partialRectangle;connectable=0;fillColor=none;top=0;left=0;bottom=0;right=0;align=left;spacingLeft=6;overflow=hidden;" vertex="1" parent="A0C1z3csXQuL9Pser97o-8">
          <mxGeometry width="150" height="30" as="geometry">
            <mxRectangle width="150" height="30" as="alternateBounds" />
          </mxGeometry>
        </mxCell>
        <mxCell id="A0C1z3csXQuL9Pser97o-96" value="NN" style="shape=partialRectangle;connectable=0;fillColor=none;top=0;left=0;bottom=0;right=0;align=left;spacingLeft=6;overflow=hidden;" vertex="1" parent="A0C1z3csXQuL9Pser97o-8">
          <mxGeometry x="150" width="60" height="30" as="geometry">
            <mxRectangle width="60" height="30" as="alternateBounds" />
          </mxGeometry>
        </mxCell>
        <mxCell id="A0C1z3csXQuL9Pser97o-136" value="계정 비밀번호" style="shape=partialRectangle;connectable=0;fillColor=none;top=0;left=0;bottom=0;right=0;align=left;spacingLeft=6;overflow=hidden;" vertex="1" parent="A0C1z3csXQuL9Pser97o-8">
          <mxGeometry x="210" width="160" height="30" as="geometry">
            <mxRectangle width="160" height="30" as="alternateBounds" />
          </mxGeometry>
        </mxCell>
        <mxCell id="A0C1z3csXQuL9Pser97o-11" value="" style="shape=tableRow;horizontal=0;startSize=0;swimlaneHead=0;swimlaneBody=0;fillColor=none;collapsible=0;dropTarget=0;points=[[0,0.5],[1,0.5]];portConstraint=eastwest;top=0;left=0;right=0;bottom=0;" vertex="1" parent="A0C1z3csXQuL9Pser97o-1">
          <mxGeometry y="120" width="370" height="30" as="geometry" />
        </mxCell>
        <mxCell id="A0C1z3csXQuL9Pser97o-13" value="nickname (varchar(255))" style="shape=partialRectangle;connectable=0;fillColor=none;top=0;left=0;bottom=0;right=0;align=left;spacingLeft=6;overflow=hidden;" vertex="1" parent="A0C1z3csXQuL9Pser97o-11">
          <mxGeometry width="150" height="30" as="geometry">
            <mxRectangle width="150" height="30" as="alternateBounds" />
          </mxGeometry>
        </mxCell>
        <mxCell id="A0C1z3csXQuL9Pser97o-97" value="NN" style="shape=partialRectangle;connectable=0;fillColor=none;top=0;left=0;bottom=0;right=0;align=left;spacingLeft=6;overflow=hidden;" vertex="1" parent="A0C1z3csXQuL9Pser97o-11">
          <mxGeometry x="150" width="60" height="30" as="geometry">
            <mxRectangle width="60" height="30" as="alternateBounds" />
          </mxGeometry>
        </mxCell>
        <mxCell id="A0C1z3csXQuL9Pser97o-137" value="계정 닉네임" style="shape=partialRectangle;connectable=0;fillColor=none;top=0;left=0;bottom=0;right=0;align=left;spacingLeft=6;overflow=hidden;" vertex="1" parent="A0C1z3csXQuL9Pser97o-11">
          <mxGeometry x="210" width="160" height="30" as="geometry">
            <mxRectangle width="160" height="30" as="alternateBounds" />
          </mxGeometry>
        </mxCell>
        <mxCell id="A0C1z3csXQuL9Pser97o-60" style="shape=tableRow;horizontal=0;startSize=0;swimlaneHead=0;swimlaneBody=0;fillColor=none;collapsible=0;dropTarget=0;points=[[0,0.5],[1,0.5]];portConstraint=eastwest;top=0;left=0;right=0;bottom=0;" vertex="1" parent="A0C1z3csXQuL9Pser97o-1">
          <mxGeometry y="150" width="370" height="30" as="geometry" />
        </mxCell>
        <mxCell id="A0C1z3csXQuL9Pser97o-62" value="address (varchar(255))" style="shape=partialRectangle;connectable=0;fillColor=none;top=0;left=0;bottom=0;right=0;align=left;spacingLeft=6;overflow=hidden;" vertex="1" parent="A0C1z3csXQuL9Pser97o-60">
          <mxGeometry width="150" height="30" as="geometry">
            <mxRectangle width="150" height="30" as="alternateBounds" />
          </mxGeometry>
        </mxCell>
        <mxCell id="A0C1z3csXQuL9Pser97o-98" style="shape=partialRectangle;connectable=0;fillColor=none;top=0;left=0;bottom=0;right=0;align=left;spacingLeft=6;overflow=hidden;" vertex="1" parent="A0C1z3csXQuL9Pser97o-60">
          <mxGeometry x="150" width="60" height="30" as="geometry">
            <mxRectangle width="60" height="30" as="alternateBounds" />
          </mxGeometry>
        </mxCell>
        <mxCell id="A0C1z3csXQuL9Pser97o-138" value="주소" style="shape=partialRectangle;connectable=0;fillColor=none;top=0;left=0;bottom=0;right=0;align=left;spacingLeft=6;overflow=hidden;" vertex="1" parent="A0C1z3csXQuL9Pser97o-60">
          <mxGeometry x="210" width="160" height="30" as="geometry">
            <mxRectangle width="160" height="30" as="alternateBounds" />
          </mxGeometry>
        </mxCell>
        <mxCell id="A0C1z3csXQuL9Pser97o-57" style="shape=tableRow;horizontal=0;startSize=0;swimlaneHead=0;swimlaneBody=0;fillColor=none;collapsible=0;dropTarget=0;points=[[0,0.5],[1,0.5]];portConstraint=eastwest;top=0;left=0;right=0;bottom=0;" vertex="1" parent="A0C1z3csXQuL9Pser97o-1">
          <mxGeometry y="180" width="370" height="30" as="geometry" />
        </mxCell>
        <mxCell id="A0C1z3csXQuL9Pser97o-59" value="genre (varchar(255))" style="shape=partialRectangle;connectable=0;fillColor=none;top=0;left=0;bottom=0;right=0;align=left;spacingLeft=6;overflow=hidden;" vertex="1" parent="A0C1z3csXQuL9Pser97o-57">
          <mxGeometry width="150" height="30" as="geometry">
            <mxRectangle width="150" height="30" as="alternateBounds" />
          </mxGeometry>
        </mxCell>
        <mxCell id="A0C1z3csXQuL9Pser97o-99" style="shape=partialRectangle;connectable=0;fillColor=none;top=0;left=0;bottom=0;right=0;align=left;spacingLeft=6;overflow=hidden;" vertex="1" parent="A0C1z3csXQuL9Pser97o-57">
          <mxGeometry x="150" width="60" height="30" as="geometry">
            <mxRectangle width="60" height="30" as="alternateBounds" />
          </mxGeometry>
        </mxCell>
        <mxCell id="A0C1z3csXQuL9Pser97o-139" value="선호 장르" style="shape=partialRectangle;connectable=0;fillColor=none;top=0;left=0;bottom=0;right=0;align=left;spacingLeft=6;overflow=hidden;" vertex="1" parent="A0C1z3csXQuL9Pser97o-57">
          <mxGeometry x="210" width="160" height="30" as="geometry">
            <mxRectangle width="160" height="30" as="alternateBounds" />
          </mxGeometry>
        </mxCell>
        <mxCell id="A0C1z3csXQuL9Pser97o-63" style="shape=tableRow;horizontal=0;startSize=0;swimlaneHead=0;swimlaneBody=0;fillColor=none;collapsible=0;dropTarget=0;points=[[0,0.5],[1,0.5]];portConstraint=eastwest;top=0;left=0;right=0;bottom=0;" vertex="1" parent="A0C1z3csXQuL9Pser97o-1">
          <mxGeometry y="210" width="370" height="30" as="geometry" />
        </mxCell>
        <mxCell id="A0C1z3csXQuL9Pser97o-65" value="reg_dt (datetime)" style="shape=partialRectangle;connectable=0;fillColor=none;top=0;left=0;bottom=0;right=0;align=left;spacingLeft=6;overflow=hidden;" vertex="1" parent="A0C1z3csXQuL9Pser97o-63">
          <mxGeometry width="150" height="30" as="geometry">
            <mxRectangle width="150" height="30" as="alternateBounds" />
          </mxGeometry>
        </mxCell>
        <mxCell id="A0C1z3csXQuL9Pser97o-100" value="NN" style="shape=partialRectangle;connectable=0;fillColor=none;top=0;left=0;bottom=0;right=0;align=left;spacingLeft=6;overflow=hidden;" vertex="1" parent="A0C1z3csXQuL9Pser97o-63">
          <mxGeometry x="150" width="60" height="30" as="geometry">
            <mxRectangle width="60" height="30" as="alternateBounds" />
          </mxGeometry>
        </mxCell>
        <mxCell id="A0C1z3csXQuL9Pser97o-140" value="생성일(default&#xa;CURRENT_DATETIME)" style="shape=partialRectangle;connectable=0;fillColor=none;top=0;left=0;bottom=0;right=0;align=left;spacingLeft=6;overflow=hidden;" vertex="1" parent="A0C1z3csXQuL9Pser97o-63">
          <mxGeometry x="210" width="160" height="30" as="geometry">
            <mxRectangle width="160" height="30" as="alternateBounds" />
          </mxGeometry>
        </mxCell>
        <mxCell id="A0C1z3csXQuL9Pser97o-14" value="" style="shape=tableRow;horizontal=0;startSize=0;swimlaneHead=0;swimlaneBody=0;fillColor=none;collapsible=0;dropTarget=0;points=[[0,0.5],[1,0.5]];portConstraint=eastwest;top=0;left=0;right=0;bottom=0;" vertex="1" parent="1">
          <mxGeometry x="20" y="340" width="180" height="30" as="geometry" />
        </mxCell>
        <mxCell id="A0C1z3csXQuL9Pser97o-15" value="" style="shape=partialRectangle;connectable=0;fillColor=none;top=0;left=0;bottom=0;right=0;editable=1;overflow=hidden;" vertex="1" parent="A0C1z3csXQuL9Pser97o-14">
          <mxGeometry width="30" height="30" as="geometry">
            <mxRectangle width="30" height="30" as="alternateBounds" />
          </mxGeometry>
        </mxCell>
        <mxCell id="A0C1z3csXQuL9Pser97o-66" value="tb_card" style="shape=table;startSize=30;container=1;collapsible=1;childLayout=tableLayout;fixedRows=1;rowLines=0;fontStyle=1;align=center;resizeLast=1;" vertex="1" parent="1">
          <mxGeometry x="40" y="440" width="370" height="250" as="geometry" />
        </mxCell>
        <mxCell id="A0C1z3csXQuL9Pser97o-67" value="" style="shape=tableRow;horizontal=0;startSize=0;swimlaneHead=0;swimlaneBody=0;fillColor=none;collapsible=0;dropTarget=0;points=[[0,0.5],[1,0.5]];portConstraint=eastwest;top=0;left=0;right=0;bottom=1;" vertex="1" parent="A0C1z3csXQuL9Pser97o-66">
          <mxGeometry y="30" width="370" height="30" as="geometry" />
        </mxCell>
        <mxCell id="A0C1z3csXQuL9Pser97o-69" value="card_sq (bigint)" style="shape=partialRectangle;connectable=0;fillColor=none;top=0;left=0;bottom=0;right=0;align=left;spacingLeft=6;fontStyle=5;overflow=hidden;" vertex="1" parent="A0C1z3csXQuL9Pser97o-67">
          <mxGeometry width="150" height="30" as="geometry">
            <mxRectangle width="150" height="30" as="alternateBounds" />
          </mxGeometry>
        </mxCell>
        <mxCell id="A0C1z3csXQuL9Pser97o-101" value="PK, AI" style="shape=partialRectangle;connectable=0;fillColor=none;top=0;left=0;bottom=0;right=0;align=left;spacingLeft=6;fontStyle=5;overflow=hidden;" vertex="1" parent="A0C1z3csXQuL9Pser97o-67">
          <mxGeometry x="150" width="60" height="30" as="geometry">
            <mxRectangle width="60" height="30" as="alternateBounds" />
          </mxGeometry>
        </mxCell>
        <mxCell id="A0C1z3csXQuL9Pser97o-141" value="" style="shape=partialRectangle;connectable=0;fillColor=none;top=0;left=0;bottom=0;right=0;align=left;spacingLeft=6;fontStyle=5;overflow=hidden;" vertex="1" parent="A0C1z3csXQuL9Pser97o-67">
          <mxGeometry x="210" width="160" height="30" as="geometry">
            <mxRectangle width="160" height="30" as="alternateBounds" />
          </mxGeometry>
        </mxCell>
        <mxCell id="A0C1z3csXQuL9Pser97o-73" value="" style="shape=tableRow;horizontal=0;startSize=0;swimlaneHead=0;swimlaneBody=0;fillColor=none;collapsible=0;dropTarget=0;points=[[0,0.5],[1,0.5]];portConstraint=eastwest;top=0;left=0;right=0;bottom=0;" vertex="1" parent="A0C1z3csXQuL9Pser97o-66">
          <mxGeometry y="60" width="370" height="30" as="geometry" />
        </mxCell>
        <mxCell id="A0C1z3csXQuL9Pser97o-75" value="title (varchar(255))" style="shape=partialRectangle;connectable=0;fillColor=none;top=0;left=0;bottom=0;right=0;align=left;spacingLeft=6;overflow=hidden;" vertex="1" parent="A0C1z3csXQuL9Pser97o-73">
          <mxGeometry width="150" height="30" as="geometry">
            <mxRectangle width="150" height="30" as="alternateBounds" />
          </mxGeometry>
        </mxCell>
        <mxCell id="A0C1z3csXQuL9Pser97o-103" value="NN" style="shape=partialRectangle;connectable=0;fillColor=none;top=0;left=0;bottom=0;right=0;align=left;spacingLeft=6;overflow=hidden;" vertex="1" parent="A0C1z3csXQuL9Pser97o-73">
          <mxGeometry x="150" width="60" height="30" as="geometry">
            <mxRectangle width="60" height="30" as="alternateBounds" />
          </mxGeometry>
        </mxCell>
        <mxCell id="A0C1z3csXQuL9Pser97o-142" value="제목" style="shape=partialRectangle;connectable=0;fillColor=none;top=0;left=0;bottom=0;right=0;align=left;spacingLeft=6;overflow=hidden;" vertex="1" parent="A0C1z3csXQuL9Pser97o-73">
          <mxGeometry x="210" width="160" height="30" as="geometry">
            <mxRectangle width="160" height="30" as="alternateBounds" />
          </mxGeometry>
        </mxCell>
        <mxCell id="A0C1z3csXQuL9Pser97o-76" value="" style="shape=tableRow;horizontal=0;startSize=0;swimlaneHead=0;swimlaneBody=0;fillColor=none;collapsible=0;dropTarget=0;points=[[0,0.5],[1,0.5]];portConstraint=eastwest;top=0;left=0;right=0;bottom=0;" vertex="1" parent="A0C1z3csXQuL9Pser97o-66">
          <mxGeometry y="90" width="370" height="30" as="geometry" />
        </mxCell>
        <mxCell id="A0C1z3csXQuL9Pser97o-78" value="content (varchar(1024))" style="shape=partialRectangle;connectable=0;fillColor=none;top=0;left=0;bottom=0;right=0;align=left;spacingLeft=6;overflow=hidden;" vertex="1" parent="A0C1z3csXQuL9Pser97o-76">
          <mxGeometry width="150" height="30" as="geometry">
            <mxRectangle width="150" height="30" as="alternateBounds" />
          </mxGeometry>
        </mxCell>
        <mxCell id="A0C1z3csXQuL9Pser97o-104" value="NN" style="shape=partialRectangle;connectable=0;fillColor=none;top=0;left=0;bottom=0;right=0;align=left;spacingLeft=6;overflow=hidden;" vertex="1" parent="A0C1z3csXQuL9Pser97o-76">
          <mxGeometry x="150" width="60" height="30" as="geometry">
            <mxRectangle width="60" height="30" as="alternateBounds" />
          </mxGeometry>
        </mxCell>
        <mxCell id="A0C1z3csXQuL9Pser97o-143" value="내용" style="shape=partialRectangle;connectable=0;fillColor=none;top=0;left=0;bottom=0;right=0;align=left;spacingLeft=6;overflow=hidden;" vertex="1" parent="A0C1z3csXQuL9Pser97o-76">
          <mxGeometry x="210" width="160" height="30" as="geometry">
            <mxRectangle width="160" height="30" as="alternateBounds" />
          </mxGeometry>
        </mxCell>
        <mxCell id="A0C1z3csXQuL9Pser97o-79" style="shape=tableRow;horizontal=0;startSize=0;swimlaneHead=0;swimlaneBody=0;fillColor=none;collapsible=0;dropTarget=0;points=[[0,0.5],[1,0.5]];portConstraint=eastwest;top=0;left=0;right=0;bottom=0;" vertex="1" parent="A0C1z3csXQuL9Pser97o-66">
          <mxGeometry y="120" width="370" height="30" as="geometry" />
        </mxCell>
        <mxCell id="A0C1z3csXQuL9Pser97o-81" value="img_url (varchar(1024))" style="shape=partialRectangle;connectable=0;fillColor=none;top=0;left=0;bottom=0;right=0;align=left;spacingLeft=6;overflow=hidden;" vertex="1" parent="A0C1z3csXQuL9Pser97o-79">
          <mxGeometry width="150" height="30" as="geometry">
            <mxRectangle width="150" height="30" as="alternateBounds" />
          </mxGeometry>
        </mxCell>
        <mxCell id="A0C1z3csXQuL9Pser97o-105" style="shape=partialRectangle;connectable=0;fillColor=none;top=0;left=0;bottom=0;right=0;align=left;spacingLeft=6;overflow=hidden;" vertex="1" parent="A0C1z3csXQuL9Pser97o-79">
          <mxGeometry x="150" width="60" height="30" as="geometry">
            <mxRectangle width="60" height="30" as="alternateBounds" />
          </mxGeometry>
        </mxCell>
        <mxCell id="A0C1z3csXQuL9Pser97o-144" value="이미지 링크 주소" style="shape=partialRectangle;connectable=0;fillColor=none;top=0;left=0;bottom=0;right=0;align=left;spacingLeft=6;overflow=hidden;" vertex="1" parent="A0C1z3csXQuL9Pser97o-79">
          <mxGeometry x="210" width="160" height="30" as="geometry">
            <mxRectangle width="160" height="30" as="alternateBounds" />
          </mxGeometry>
        </mxCell>
        <mxCell id="A0C1z3csXQuL9Pser97o-158" style="shape=tableRow;horizontal=0;startSize=0;swimlaneHead=0;swimlaneBody=0;fillColor=none;collapsible=0;dropTarget=0;points=[[0,0.5],[1,0.5]];portConstraint=eastwest;top=0;left=0;right=0;bottom=0;" vertex="1" parent="A0C1z3csXQuL9Pser97o-66">
          <mxGeometry y="150" width="370" height="30" as="geometry" />
        </mxCell>
        <mxCell id="A0C1z3csXQuL9Pser97o-159" value="like_cnt (int)" style="shape=partialRectangle;connectable=0;fillColor=none;top=0;left=0;bottom=0;right=0;align=left;spacingLeft=6;overflow=hidden;" vertex="1" parent="A0C1z3csXQuL9Pser97o-158">
          <mxGeometry width="150" height="30" as="geometry">
            <mxRectangle width="150" height="30" as="alternateBounds" />
          </mxGeometry>
        </mxCell>
        <mxCell id="A0C1z3csXQuL9Pser97o-160" value="NN" style="shape=partialRectangle;connectable=0;fillColor=none;top=0;left=0;bottom=0;right=0;align=left;spacingLeft=6;overflow=hidden;" vertex="1" parent="A0C1z3csXQuL9Pser97o-158">
          <mxGeometry x="150" width="60" height="30" as="geometry">
            <mxRectangle width="60" height="30" as="alternateBounds" />
          </mxGeometry>
        </mxCell>
        <mxCell id="A0C1z3csXQuL9Pser97o-161" value="추천 수(default 0)" style="shape=partialRectangle;connectable=0;fillColor=none;top=0;left=0;bottom=0;right=0;align=left;spacingLeft=6;overflow=hidden;" vertex="1" parent="A0C1z3csXQuL9Pser97o-158">
          <mxGeometry x="210" width="160" height="30" as="geometry">
            <mxRectangle width="160" height="30" as="alternateBounds" />
          </mxGeometry>
        </mxCell>
        <mxCell id="A0C1z3csXQuL9Pser97o-91" style="shape=tableRow;horizontal=0;startSize=0;swimlaneHead=0;swimlaneBody=0;fillColor=none;collapsible=0;dropTarget=0;points=[[0,0.5],[1,0.5]];portConstraint=eastwest;top=0;left=0;right=0;bottom=0;" vertex="1" parent="A0C1z3csXQuL9Pser97o-66">
          <mxGeometry y="180" width="370" height="30" as="geometry" />
        </mxCell>
        <mxCell id="A0C1z3csXQuL9Pser97o-93" value="member_sq (bigint)" style="shape=partialRectangle;connectable=0;fillColor=none;top=0;left=0;bottom=0;right=0;align=left;spacingLeft=6;overflow=hidden;" vertex="1" parent="A0C1z3csXQuL9Pser97o-91">
          <mxGeometry width="150" height="30" as="geometry">
            <mxRectangle width="150" height="30" as="alternateBounds" />
          </mxGeometry>
        </mxCell>
        <mxCell id="A0C1z3csXQuL9Pser97o-106" value="NN" style="shape=partialRectangle;connectable=0;fillColor=none;top=0;left=0;bottom=0;right=0;align=left;spacingLeft=6;overflow=hidden;" vertex="1" parent="A0C1z3csXQuL9Pser97o-91">
          <mxGeometry x="150" width="60" height="30" as="geometry">
            <mxRectangle width="60" height="30" as="alternateBounds" />
          </mxGeometry>
        </mxCell>
        <mxCell id="A0C1z3csXQuL9Pser97o-145" value="작성자 pk" style="shape=partialRectangle;connectable=0;fillColor=none;top=0;left=0;bottom=0;right=0;align=left;spacingLeft=6;overflow=hidden;" vertex="1" parent="A0C1z3csXQuL9Pser97o-91">
          <mxGeometry x="210" width="160" height="30" as="geometry">
            <mxRectangle width="160" height="30" as="alternateBounds" />
          </mxGeometry>
        </mxCell>
        <mxCell id="A0C1z3csXQuL9Pser97o-85" style="shape=tableRow;horizontal=0;startSize=0;swimlaneHead=0;swimlaneBody=0;fillColor=none;collapsible=0;dropTarget=0;points=[[0,0.5],[1,0.5]];portConstraint=eastwest;top=0;left=0;right=0;bottom=0;" vertex="1" parent="A0C1z3csXQuL9Pser97o-66">
          <mxGeometry y="210" width="370" height="30" as="geometry" />
        </mxCell>
        <mxCell id="A0C1z3csXQuL9Pser97o-87" value="reg_dt (datetime)" style="shape=partialRectangle;connectable=0;fillColor=none;top=0;left=0;bottom=0;right=0;align=left;spacingLeft=6;overflow=hidden;" vertex="1" parent="A0C1z3csXQuL9Pser97o-85">
          <mxGeometry width="150" height="30" as="geometry">
            <mxRectangle width="150" height="30" as="alternateBounds" />
          </mxGeometry>
        </mxCell>
        <mxCell id="A0C1z3csXQuL9Pser97o-107" value="NN" style="shape=partialRectangle;connectable=0;fillColor=none;top=0;left=0;bottom=0;right=0;align=left;spacingLeft=6;overflow=hidden;" vertex="1" parent="A0C1z3csXQuL9Pser97o-85">
          <mxGeometry x="150" width="60" height="30" as="geometry">
            <mxRectangle width="60" height="30" as="alternateBounds" />
          </mxGeometry>
        </mxCell>
        <mxCell id="A0C1z3csXQuL9Pser97o-146" value="생성일(default &#xa;CURRENT_DATETIME)" style="shape=partialRectangle;connectable=0;fillColor=none;top=0;left=0;bottom=0;right=0;align=left;spacingLeft=6;overflow=hidden;" vertex="1" parent="A0C1z3csXQuL9Pser97o-85">
          <mxGeometry x="210" width="160" height="30" as="geometry">
            <mxRectangle width="160" height="30" as="alternateBounds" />
          </mxGeometry>
        </mxCell>
        <mxCell id="A0C1z3csXQuL9Pser97o-108" value="tb_comment" style="shape=table;startSize=30;container=1;collapsible=1;childLayout=tableLayout;fixedRows=1;rowLines=0;fontStyle=1;align=center;resizeLast=1;" vertex="1" parent="1">
          <mxGeometry x="40" y="720" width="370" height="220" as="geometry" />
        </mxCell>
        <mxCell id="A0C1z3csXQuL9Pser97o-109" value="" style="shape=tableRow;horizontal=0;startSize=0;swimlaneHead=0;swimlaneBody=0;fillColor=none;collapsible=0;dropTarget=0;points=[[0,0.5],[1,0.5]];portConstraint=eastwest;top=0;left=0;right=0;bottom=1;" vertex="1" parent="A0C1z3csXQuL9Pser97o-108">
          <mxGeometry y="30" width="370" height="30" as="geometry" />
        </mxCell>
        <mxCell id="A0C1z3csXQuL9Pser97o-111" value="comment_sq (bigint)" style="shape=partialRectangle;connectable=0;fillColor=none;top=0;left=0;bottom=0;right=0;align=left;spacingLeft=6;fontStyle=5;overflow=hidden;" vertex="1" parent="A0C1z3csXQuL9Pser97o-109">
          <mxGeometry width="150" height="30" as="geometry">
            <mxRectangle width="150" height="30" as="alternateBounds" />
          </mxGeometry>
        </mxCell>
        <mxCell id="A0C1z3csXQuL9Pser97o-112" value="PK, AI" style="shape=partialRectangle;connectable=0;fillColor=none;top=0;left=0;bottom=0;right=0;align=left;spacingLeft=6;fontStyle=5;overflow=hidden;" vertex="1" parent="A0C1z3csXQuL9Pser97o-109">
          <mxGeometry x="150" width="60" height="30" as="geometry">
            <mxRectangle width="60" height="30" as="alternateBounds" />
          </mxGeometry>
        </mxCell>
        <mxCell id="A0C1z3csXQuL9Pser97o-147" style="shape=partialRectangle;connectable=0;fillColor=none;top=0;left=0;bottom=0;right=0;align=left;spacingLeft=6;fontStyle=5;overflow=hidden;" vertex="1" parent="A0C1z3csXQuL9Pser97o-109">
          <mxGeometry x="210" width="160" height="30" as="geometry">
            <mxRectangle width="160" height="30" as="alternateBounds" />
          </mxGeometry>
        </mxCell>
        <mxCell id="A0C1z3csXQuL9Pser97o-117" value="" style="shape=tableRow;horizontal=0;startSize=0;swimlaneHead=0;swimlaneBody=0;fillColor=none;collapsible=0;dropTarget=0;points=[[0,0.5],[1,0.5]];portConstraint=eastwest;top=0;left=0;right=0;bottom=0;" vertex="1" parent="A0C1z3csXQuL9Pser97o-108">
          <mxGeometry y="60" width="370" height="30" as="geometry" />
        </mxCell>
        <mxCell id="A0C1z3csXQuL9Pser97o-119" value="content (varchar(255))" style="shape=partialRectangle;connectable=0;fillColor=none;top=0;left=0;bottom=0;right=0;align=left;spacingLeft=6;overflow=hidden;" vertex="1" parent="A0C1z3csXQuL9Pser97o-117">
          <mxGeometry width="150" height="30" as="geometry">
            <mxRectangle width="150" height="30" as="alternateBounds" />
          </mxGeometry>
        </mxCell>
        <mxCell id="A0C1z3csXQuL9Pser97o-120" value="NN" style="shape=partialRectangle;connectable=0;fillColor=none;top=0;left=0;bottom=0;right=0;align=left;spacingLeft=6;overflow=hidden;" vertex="1" parent="A0C1z3csXQuL9Pser97o-117">
          <mxGeometry x="150" width="60" height="30" as="geometry">
            <mxRectangle width="60" height="30" as="alternateBounds" />
          </mxGeometry>
        </mxCell>
        <mxCell id="A0C1z3csXQuL9Pser97o-149" value="내용" style="shape=partialRectangle;connectable=0;fillColor=none;top=0;left=0;bottom=0;right=0;align=left;spacingLeft=6;overflow=hidden;" vertex="1" parent="A0C1z3csXQuL9Pser97o-117">
          <mxGeometry x="210" width="160" height="30" as="geometry">
            <mxRectangle width="160" height="30" as="alternateBounds" />
          </mxGeometry>
        </mxCell>
        <mxCell id="A0C1z3csXQuL9Pser97o-181" style="shape=tableRow;horizontal=0;startSize=0;swimlaneHead=0;swimlaneBody=0;fillColor=none;collapsible=0;dropTarget=0;points=[[0,0.5],[1,0.5]];portConstraint=eastwest;top=0;left=0;right=0;bottom=0;" vertex="1" parent="A0C1z3csXQuL9Pser97o-108">
          <mxGeometry y="90" width="370" height="30" as="geometry" />
        </mxCell>
        <mxCell id="A0C1z3csXQuL9Pser97o-182" value="like_cnt (int)" style="shape=partialRectangle;connectable=0;fillColor=none;top=0;left=0;bottom=0;right=0;align=left;spacingLeft=6;overflow=hidden;" vertex="1" parent="A0C1z3csXQuL9Pser97o-181">
          <mxGeometry width="150" height="30" as="geometry">
            <mxRectangle width="150" height="30" as="alternateBounds" />
          </mxGeometry>
        </mxCell>
        <mxCell id="A0C1z3csXQuL9Pser97o-183" value="NN" style="shape=partialRectangle;connectable=0;fillColor=none;top=0;left=0;bottom=0;right=0;align=left;spacingLeft=6;overflow=hidden;" vertex="1" parent="A0C1z3csXQuL9Pser97o-181">
          <mxGeometry x="150" width="60" height="30" as="geometry">
            <mxRectangle width="60" height="30" as="alternateBounds" />
          </mxGeometry>
        </mxCell>
        <mxCell id="A0C1z3csXQuL9Pser97o-184" value="추천 수(default 0)" style="shape=partialRectangle;connectable=0;fillColor=none;top=0;left=0;bottom=0;right=0;align=left;spacingLeft=6;overflow=hidden;" vertex="1" parent="A0C1z3csXQuL9Pser97o-181">
          <mxGeometry x="210" width="160" height="30" as="geometry">
            <mxRectangle width="160" height="30" as="alternateBounds" />
          </mxGeometry>
        </mxCell>
        <mxCell id="A0C1z3csXQuL9Pser97o-154" style="shape=tableRow;horizontal=0;startSize=0;swimlaneHead=0;swimlaneBody=0;fillColor=none;collapsible=0;dropTarget=0;points=[[0,0.5],[1,0.5]];portConstraint=eastwest;top=0;left=0;right=0;bottom=0;" vertex="1" parent="A0C1z3csXQuL9Pser97o-108">
          <mxGeometry y="120" width="370" height="30" as="geometry" />
        </mxCell>
        <mxCell id="A0C1z3csXQuL9Pser97o-155" value="card_sq(bigint)" style="shape=partialRectangle;connectable=0;fillColor=none;top=0;left=0;bottom=0;right=0;align=left;spacingLeft=6;overflow=hidden;" vertex="1" parent="A0C1z3csXQuL9Pser97o-154">
          <mxGeometry width="150" height="30" as="geometry">
            <mxRectangle width="150" height="30" as="alternateBounds" />
          </mxGeometry>
        </mxCell>
        <mxCell id="A0C1z3csXQuL9Pser97o-156" value="NN" style="shape=partialRectangle;connectable=0;fillColor=none;top=0;left=0;bottom=0;right=0;align=left;spacingLeft=6;overflow=hidden;" vertex="1" parent="A0C1z3csXQuL9Pser97o-154">
          <mxGeometry x="150" width="60" height="30" as="geometry">
            <mxRectangle width="60" height="30" as="alternateBounds" />
          </mxGeometry>
        </mxCell>
        <mxCell id="A0C1z3csXQuL9Pser97o-157" value="카드 pk" style="shape=partialRectangle;connectable=0;fillColor=none;top=0;left=0;bottom=0;right=0;align=left;spacingLeft=6;overflow=hidden;" vertex="1" parent="A0C1z3csXQuL9Pser97o-154">
          <mxGeometry x="210" width="160" height="30" as="geometry">
            <mxRectangle width="160" height="30" as="alternateBounds" />
          </mxGeometry>
        </mxCell>
        <mxCell id="A0C1z3csXQuL9Pser97o-125" style="shape=tableRow;horizontal=0;startSize=0;swimlaneHead=0;swimlaneBody=0;fillColor=none;collapsible=0;dropTarget=0;points=[[0,0.5],[1,0.5]];portConstraint=eastwest;top=0;left=0;right=0;bottom=0;" vertex="1" parent="A0C1z3csXQuL9Pser97o-108">
          <mxGeometry y="150" width="370" height="30" as="geometry" />
        </mxCell>
        <mxCell id="A0C1z3csXQuL9Pser97o-127" value="member_sq (bigint)" style="shape=partialRectangle;connectable=0;fillColor=none;top=0;left=0;bottom=0;right=0;align=left;spacingLeft=6;overflow=hidden;" vertex="1" parent="A0C1z3csXQuL9Pser97o-125">
          <mxGeometry width="150" height="30" as="geometry">
            <mxRectangle width="150" height="30" as="alternateBounds" />
          </mxGeometry>
        </mxCell>
        <mxCell id="A0C1z3csXQuL9Pser97o-128" value="NN" style="shape=partialRectangle;connectable=0;fillColor=none;top=0;left=0;bottom=0;right=0;align=left;spacingLeft=6;overflow=hidden;" vertex="1" parent="A0C1z3csXQuL9Pser97o-125">
          <mxGeometry x="150" width="60" height="30" as="geometry">
            <mxRectangle width="60" height="30" as="alternateBounds" />
          </mxGeometry>
        </mxCell>
        <mxCell id="A0C1z3csXQuL9Pser97o-151" value="작성자 pk" style="shape=partialRectangle;connectable=0;fillColor=none;top=0;left=0;bottom=0;right=0;align=left;spacingLeft=6;overflow=hidden;" vertex="1" parent="A0C1z3csXQuL9Pser97o-125">
          <mxGeometry x="210" width="160" height="30" as="geometry">
            <mxRectangle width="160" height="30" as="alternateBounds" />
          </mxGeometry>
        </mxCell>
        <mxCell id="A0C1z3csXQuL9Pser97o-129" style="shape=tableRow;horizontal=0;startSize=0;swimlaneHead=0;swimlaneBody=0;fillColor=none;collapsible=0;dropTarget=0;points=[[0,0.5],[1,0.5]];portConstraint=eastwest;top=0;left=0;right=0;bottom=0;" vertex="1" parent="A0C1z3csXQuL9Pser97o-108">
          <mxGeometry y="180" width="370" height="30" as="geometry" />
        </mxCell>
        <mxCell id="A0C1z3csXQuL9Pser97o-131" value="reg_dt (datetime)" style="shape=partialRectangle;connectable=0;fillColor=none;top=0;left=0;bottom=0;right=0;align=left;spacingLeft=6;overflow=hidden;" vertex="1" parent="A0C1z3csXQuL9Pser97o-129">
          <mxGeometry width="150" height="30" as="geometry">
            <mxRectangle width="150" height="30" as="alternateBounds" />
          </mxGeometry>
        </mxCell>
        <mxCell id="A0C1z3csXQuL9Pser97o-132" value="NN" style="shape=partialRectangle;connectable=0;fillColor=none;top=0;left=0;bottom=0;right=0;align=left;spacingLeft=6;overflow=hidden;" vertex="1" parent="A0C1z3csXQuL9Pser97o-129">
          <mxGeometry x="150" width="60" height="30" as="geometry">
            <mxRectangle width="60" height="30" as="alternateBounds" />
          </mxGeometry>
        </mxCell>
        <mxCell id="A0C1z3csXQuL9Pser97o-152" value="생성일(default&#xa;CURRENT_DATETIME)" style="shape=partialRectangle;connectable=0;fillColor=none;top=0;left=0;bottom=0;right=0;align=left;spacingLeft=6;overflow=hidden;" vertex="1" parent="A0C1z3csXQuL9Pser97o-129">
          <mxGeometry x="210" width="160" height="30" as="geometry">
            <mxRectangle width="160" height="30" as="alternateBounds" />
          </mxGeometry>
        </mxCell>
        <mxCell id="A0C1z3csXQuL9Pser97o-133" value="&lt;h1&gt;ERD&lt;/h1&gt;&lt;div&gt;- 컬럼설명: 컬럼이름, 제약사항, 설명 순&lt;/div&gt;&lt;div&gt;- 제약사항:&amp;nbsp; PK(primary key), AI(auto increment), NN(not null), UN(unique)&lt;/div&gt;" style="text;html=1;strokeColor=none;fillColor=none;spacing=5;spacingTop=-20;whiteSpace=wrap;overflow=hidden;rounded=0;" vertex="1" parent="1">
          <mxGeometry x="40" y="40" width="560" height="80" as="geometry" />
        </mxCell>
      </root>
    </mxGraphModel>
  </diagram>
</mxfile>
